<svg width="56" height="42" viewBox="0 0 56 42" fill="none" xmlns="http://www.w3.org/2000/svg">
<path d="M48.1222 16.4548C47.5668 16.1949 46.8619 16.0846 45.9719 16.0846C41.2977 16.0846 38.1827 19.6802 38.1827 25.6539C38.1827 32.4784 41.3724 35.2231 45.5269 35.2231C46.4169 35.2231 47.3817 35.1128 48.0866 34.8137V16.4548H48.1222ZM31.5112 25.9458C31.5112 17.3057 37.0755 10.5559 46.1962 10.5559C46.9759 10.5559 47.3817 10.5559 48.1257 10.6307V0.99017C48.1257 0.76945 48.3109 0.619931 48.496 0.619931H54.4661C54.7616 0.619931 54.8363 0.730291 54.8363 0.915411V34.8102C54.8363 35.8105 54.8363 37.0708 55.0215 38.4449C55.0215 38.7048 55.0215 38.7404 54.7972 38.8543C51.6822 40.3389 48.4177 41.0046 45.3027 41.0046C37.2571 41.001 31.5112 36.0348 31.5112 25.9458ZM18.8661 19.9401L29.2506 40.0754C29.4357 40.3709 29.3254 40.6699 29.0263 40.6699H22.5721C22.1627 40.6699 21.9775 40.5596 21.7924 40.1893C19.4179 35.2943 17.0078 30.2142 14.5229 24.949H14.4481C12.2231 29.9187 9.77741 35.3335 7.40289 40.2285C7.21777 40.524 7.03265 40.6379 6.73361 40.6379H0.581934C0.211694 40.6379 0.172534 40.3424 0.357654 40.1181L10.5179 20.5737L0.692293 1.14325C0.468013 0.847772 0.692294 0.587891 0.952174 0.587891H7.33169C7.70193 0.587891 7.88705 0.662651 8.00097 0.997291C10.3363 5.92789 12.7109 10.7873 14.9359 15.7571H15.0106C17.1609 10.8621 19.5354 5.93145 21.796 1.07205C21.9811 0.776572 22.0915 0.591452 22.4653 0.591452H28.4354C28.7309 0.591452 28.8448 0.815731 28.6597 1.14681L18.8661 19.9401Z" fill="#FF2BC2"/>
</svg>
